<?xml version="1.0" encoding="UTF-8"?><svg xmlns="http://www.w3.org/2000/svg" viewBox="0 0 1000 305.63"><g id="a"/><g id="b"><g id="c"><g id="d"><g><path fill="white" d="M430.58,152.16c1.72-.17,3.04-.89,2.62-3.45-.41-2.57,.08-4.78,.83-9.79,2.78-16.52,9.95-36.22-9.86-42.78-2.2-.7-2.44-3.7-.37-4.74,11.57-5.71,21.35-16.84,23.43-29.47,2.12-9.59,1.03-18.56-3.86-23.21-6.7-6.62-19.89-8.8-39.58-6.72-28.68,2.95-57.37,5.58-86.12,7.77-1.16,.09-2.12,.95-2.33,2.09-7.57,40.87-15.14,81.75-22.72,122.62,15.26-.88,22.89-1.41,38.14-2.6,2.88-15.59,4.38-23.7,7.15-38.69,.21-1.14,1.17-2.01,2.33-2.11,14.74-1.21,22.73-1.95,38.08-3.45,29.05-3.24,16.76,18.3,15.74,35.56-.06,1.54,1.32,2.76,2.85,2.6,12.99-1.34,21.02-2.36,33.65-3.64Zm-41.78-65.84c-16.78,1.7-25.71,2.55-41.47,3.89-1.69,.14-3.07-1.36-2.76-3.04,1.26-6.81,2.09-11.3,3.4-18.44,.21-1.14,1.16-2.01,2.32-2.11,16.66-1.44,25.61-2.31,42.89-4.08,9.16-.81,14.97,.95,13.15,10.21-1.82,9.27-8,12.38-17.52,13.56Z"/><path fill="white" d="M597.47,129.44c-10.33-37.88-20.67-75.76-31.01-113.63-.39-1.43-1.77-2.37-3.24-2.2-15.41,1.74-30.82,3.54-46.22,5.37-.94,.11-1.77,.66-2.25,1.47-24.4,41.89-48.8,83.78-73.24,125.64-1.25,2.14,.48,4.78,2.94,4.5,11.11-1.27,18.45-2.13,30.66-3.57,.95-.11,1.8-.67,2.27-1.5,4.5-7.86,7.08-12.38,11.59-20.25,.47-.83,1.31-1.39,2.26-1.5,19.53-2.32,39.06-4.64,58.6-6.9,1.5-.17,2.9,.8,3.27,2.26,1.49,5.87,2.47,9.75,3.96,15.62,.37,1.46,1.77,2.43,3.26,2.26,13.43-1.53,21.37-2.41,34.56-3.8,1.84-.19,3.09-1.99,2.6-3.78Zm-55.01-38.84c-11.62,1.35-19.03,2.22-30.07,3.53-2.45,.29-4.2-2.33-2.98-4.47,7.15-12.55,14.3-25.1,21.45-37.65,1.34-2.35,4.86-1.86,5.53,.76,3.14,12.39,5.28,20.81,8.64,34.1,.45,1.76-.77,3.53-2.58,3.74Z"/><path fill="white" d="M612.39,131.41c12.42-1.26,19.89-1.97,32.71-3.1,1.16-.1,2.12-.98,2.33-2.12,2.5-13.58,3.92-21.23,6.42-34.81,.21-1.13,1.12-2,2.26-2.13,41.48-4.68,94.53,3.81,103.93-47.57,6.74-32.22-10.74-43.19-44.41-41.5-27.26,1.39-54.48,3.56-81.66,6.07-1.16,.11-2.11,.97-2.32,2.12-7.37,40-14.73,80-22.1,120-.31,1.7,1.11,3.23,2.83,3.06Zm47.96-75.2c1.45-7.84,2.38-12.88,3.89-21.06,.21-1.16,1.19-2.03,2.36-2.12,15.61-1.24,24.06-1.83,40.3-2.77,11.02-.68,15.51,3.7,13.67,12.34-1.61,8.68-7.79,13.27-18.54,13.92-15.75,.95-24.16,1.56-38.9,2.76-1.71,.14-3.09-1.39-2.78-3.07Z"/><path fill="white" d="M88.05,175.52c-22.1-3.06-40.81-6.01-62.71-10.11-1.51-.28-2.96,.67-3.26,2.18C14.76,205.13,7.41,242.67,.05,280.2c-.29,1.47,.64,2.9,2.09,3.24,20.82,4.86,41.84,8.86,62.98,12.03,44.77,6.09,82.88-6.75,89.82-56.5,9.32-44.86-29.97-58.63-66.89-63.45Zm26.63,63.4c-6.19,35.81-39.62,29.11-68.69,23.85-1.52-.27-2.52-1.74-2.22-3.25,3.66-18.85,7.31-37.7,10.95-56.56,.29-1.48,1.7-2.45,3.19-2.2,26.32,4.3,63.81,4.12,56.77,38.17Z"/><path fill="white" d="M219.05,182.58c-12.34,.1-19.79,.05-32.41-.22-1.35-.03-2.53,.93-2.79,2.26-7.34,38.95-14.69,77.9-22.05,116.85-.31,1.66,.93,3.21,2.62,3.28,12.45,.53,19.91,.72,32.6,.86,1.35,.01,2.51-.94,2.76-2.26,7.35-39.16,14.7-78.32,22.03-117.48,.32-1.72-1.02-3.3-2.76-3.28Z"/><path fill="white" d="M313.87,176.93c-27.36,1.3-57.38,13.06-72.29,36.74-27.6,44.58-13.29,96.47,45.83,91.65,18.33-.69,34.96-6.31,48.38-18.36,1.62-1.45,4.2-.6,4.59,1.54,.55,3.03,.78,5.52,.77,8.21,0,1.64,1.38,2.95,3.02,2.81,8.73-.73,14.21-1.22,23.2-2.07,1.23-.12,2.24-1.04,2.47-2.26,3.9-21.19,7.81-42.38,11.71-63.57,.33-1.81-1.15-3.43-2.98-3.25-22.9,2.16-45.81,4.1-68.75,5.76-1.26,.09-2.29,1.02-2.52,2.26-1.22,6.61-2.01,10.87-3.18,17.16-.33,1.78,1.11,3.39,2.92,3.28,9.24-.6,15.37-1.04,24.21-1.75,2.4-.19,3.87,2.55,2.42,4.47-7.26,9.66-19.56,13.53-33.68,14.6-12.87,.8-21.83-2.36-26.87-9.3-5.14-6.57-5.24-15.64-3.51-23.67,4.02-21.5,19.84-32.13,42.09-33.64,11.88-.73,27.57-.18,30.93,10,.38,1.25,1.58,2.07,2.89,1.96,13.74-1.16,21.59-1.89,35.35-3.25,1.3-.13,2.32-1.16,2.49-2.46,4.89-37.89-41.92-40.23-69.49-36.85Z"/><path fill="white" d="M482.31,159.98c-28.18,2.68-57.77,16.91-72.51,41.53-26.73,45.06-14.98,97.17,45.83,88.33,18.48-1.83,35.15-8.31,48.53-20.91,1.53-1.44,4.05-.63,4.43,1.44,.56,3.06,.79,5.57,.79,8.28,0,1.61,1.38,2.87,2.98,2.68,8.8-1.04,14.29-1.69,23.38-2.75,1.16-.14,2.09-1.01,2.3-2.16,3.92-21.34,7.83-42.67,11.75-64.01,.32-1.76-1.15-3.32-2.92-3.12-23.01,2.68-46.01,5.41-69.02,8.14-1.16,.14-2.09,1.02-2.3,2.16-1.24,6.78-2.04,11.11-3.22,17.53-.32,1.76,1.16,3.33,2.93,3.12,9.27-1.09,15.4-1.82,24.29-2.88,2.32-.28,3.81,2.34,2.44,4.23-7.22,10.02-19.58,14.49-33.8,16.35-12.87,1.51-21.83-1.05-26.87-7.64-5.23-6.38-5.19-15.45-3.51-23.42,3.98-21.66,19.75-33.55,42.09-36.16,11.7-1.29,27.48-1.51,30.94,8.7,.37,1.23,1.58,2.01,2.85,1.86,13.8-1.64,21.66-2.57,35.51-4.16,1.19-.14,2.17-1.05,2.33-2.24,5.04-38.41-41.77-39.68-69.23-34.88Z"/><path fill="white" d="M693.31,140.23c-36.2,2.55-72.3,5.89-108.39,9.71-1.17,.12-2.12,1-2.33,2.16-7.36,40.06-14.72,80.13-22.08,120.19-.32,1.75,1.13,3.31,2.9,3.11,36.36-4.03,72.72-7.68,109.19-10.63,1.19-.1,2.17-.98,2.39-2.16,1.7-9.19,2.73-14.78,4.37-23.61,.32-1.72-1.08-3.28-2.82-3.14-23.35,1.84-46.66,3.94-69.97,6.26-1.75,.17-3.18-1.39-2.87-3.12,.93-5.04,1.58-8.59,2.57-13.95,.21-1.16,1.18-2.06,2.35-2.17,23.17-2.29,46.34-4.36,69.55-6.17,1.2-.09,2.18-.98,2.4-2.16,1.75-9.45,2.81-15.18,4.49-24.27,.32-1.71-1.08-3.27-2.81-3.14-22.24,1.68-44.44,3.62-66.63,5.76-1.75,.17-3.18-1.39-2.86-3.12,.84-4.58,1.45-7.88,2.35-12.76,.22-1.17,1.18-2.06,2.36-2.18,23.96-2.29,47.92-4.33,71.93-6.07,1.2-.09,2.19-.98,2.41-2.16,1.67-9.04,2.7-14.55,4.31-23.24,.32-1.71-1.07-3.27-2.8-3.14Z"/><path fill="white" d="M807.01,137.03c-28.73-.21-57.34,.36-86.04,1.6-1.2,.05-2.21,.93-2.43,2.11-7.58,40.79-15.14,81.59-22.71,122.38,14.56-.93,22.17-1.35,36.09-1.92,1.2-.05,2.21-.93,2.43-2.11,2.63-14.15,4.12-22.13,6.75-36.26,.22-1.19,1.24-2.07,2.45-2.11,14.67-.51,22.67-.68,37.99-.77,11.26,.22,18.16,2.06,19.09,11.46,.79,7.86-3.13,17.57-3.35,26-.04,1.43,1.14,2.6,2.57,2.61,12.99,.11,20.68,.29,33.41,.81,1.92,.04,3.3-1.4,3.12-3.29-.34-6.73,2.64-17.3,3.77-24.66,1.74-8.8,.6-16.1-3.46-21.71-2.21-3.06-5.43-5.55-9.61-7.44-2.1-.95-1.95-3.96,.22-4.75,11.47-4.1,21.09-13.51,23.15-25.67,5.75-27.61-13.91-35.33-43.44-36.29Zm2.58,40.74c-1.7,9.31-8.03,11.72-17.59,11.89-16.84-.05-25.77,.08-41.64,.56-1.64,.05-2.92-1.43-2.62-3.05,1.26-6.78,2.09-11.22,3.4-18.26,.22-1.19,1.25-2.08,2.46-2.11,16.58-.46,25.53-.57,42.77-.45,8.96,.27,14.79,2.42,13.21,11.41Z"/><path fill="white" d="M943.13,146.82c-28.02-5.41-70.08-6.96-75.34,29.62-4.65,27.85,17.71,36.39,46.58,41.36,10.14,1.83,28.41,3.51,34.53,9.04,4.3,3.3,3.53,9.36,.83,13.3-4.85,5.69-15.23,4.95-26.6,3.62-12.9-1.79-23.98-5.51-24.23-16.58-.03-1.38-1.03-2.54-2.41-2.69-14.07-1.5-22.18-2.19-36.28-3.1-1.4-.09-2.61,.91-2.84,2.29-5.57,33.21,26.72,41.9,58.32,46.06,31.33,3.93,69.94,7.85,76.48-27.59,6.93-30.14-16.03-40.93-47.51-47.77-10.88-3-45.43-3.48-34.87-20.24,5.01-4.8,13.64-3.92,24.48-2.56,11.93,1.94,22.88,4.64,24.04,14.55,.14,1.19,1.01,2.17,2.2,2.39,13.96,2.54,21.94,4.19,35.73,7.41,1.52,.36,3.03-.66,3.29-2.19,5.2-30.86-31.17-43.64-56.36-46.92Z"/></g></g></g></g></svg>